<svg width="41" height="65" viewBox="0 0 41 65" fill="none" xmlns="http://www.w3.org/2000/svg">
<path d="M2.28802 12.9792V46.3886H23.0587C37.8166 47.2643 42.7469 31.1724 27.7616 25.9117C37.5133 15.5955 30.8582 9.44276 16.9843 2.8877L2.28802 12.9792Z" fill="#1E293B"/>
<path d="M18.4758 0.985535L2.28802 12.106V12.9943V48.0284H24.5853C33.5728 48.5618 39.7679 43.1029 40.1022 36.7869C40.2586 33.8676 39.1484 30.8466 36.7081 28.4143C35.4647 27.1741 33.5478 26.2564 31.6407 25.3675C33.3164 23.3017 34.8743 21.2567 35.3663 19.2818C35.995 16.7599 35.5401 14.2683 34.267 12.1376C31.721 7.87642 26.3566 4.73216 19.332 1.41325L18.4758 0.985535ZM20.2778 5.6892C25.7576 8.46903 29.8905 11.2011 31.4548 13.8194C32.3603 15.3364 32.623 16.7527 32.1898 18.4906C31.7564 20.2284 30.5395 22.3341 28.2216 24.7861L26.4762 26.6126L28.8603 27.4696C31.3189 28.3329 33.1278 29.4868 34.388 30.7428C36.2406 32.5891 36.9417 34.6211 36.8368 36.6021C36.6101 40.8886 32.4214 45.2175 24.7951 44.7646H24.7326H20.2717L20.2778 5.6892ZM16.9806 5.99554V44.7634H5.55283V13.851L16.9806 5.99554Z" fill="#D1D1D1"/>
<path d="M36.8511 51.1578H0.40155V54.442H36.8511V51.1578Z" fill="#D1D1D1"/>
<path d="M31.9587 56.1945H5.29388V59.4787H31.9587V56.1945Z" fill="#D1D1D1"/>
<path d="M27.796 61.2314H11.0844V64.5156H27.796V61.2314Z" fill="#D1D1D1"/>
</svg>
