<svg width="125" height="125" viewBox="0 0 125 125" fill="none" xmlns="http://www.w3.org/2000/svg">
<path d="M15.625 21.5L62.5234 7.8125L109.375 21.5V49.5677C109.375 63.9523 104.848 77.9722 96.4365 89.641C88.0249 101.31 76.1548 110.036 62.5078 114.583C48.8567 110.037 36.9825 101.309 28.568 89.6379C20.1534 77.9665 15.6252 63.9431 15.625 49.5547V21.5Z" stroke="black" stroke-width="4" stroke-linejoin="round"/>
<path d="M75.5202 53.4375V48.2292C75.5202 40.9375 69.791 35.2083 62.4993 35.2083C55.2077 35.2083 49.4785 40.9375 49.4785 48.2292V53.4375C45.0514 53.4375 41.666 56.8229 41.666 61.25V79.4792C41.666 83.9062 45.0514 87.2917 49.4785 87.2917H75.5202C79.9473 87.2917 83.3327 83.9062 83.3327 79.4792V61.25C83.3327 56.8229 79.9473 53.4375 75.5202 53.4375ZM54.6868 48.2292C54.6868 43.8021 58.0723 40.4167 62.4993 40.4167C66.9264 40.4167 70.3118 43.8021 70.3118 48.2292V53.4375H54.6868V48.2292Z" fill="black"/>
</svg>
